# Blender v3.1.2 OBJ File: 'Pantalla.blend'
# www.blender.org
mtllib Pantalla.mtl
o BezierCurve
v -1.000000 -0.500000 -0.000000
v -1.000000 0.500000 0.000000
v -0.858179 -0.500000 0.114487
v -0.858179 0.500000 0.114487
v -0.702581 -0.500000 0.207984
v -0.702581 0.500000 0.207984
v -0.535985 -0.500000 0.280543
v -0.535985 0.500000 0.280543
v -0.361167 -0.500000 0.332217
v -0.361167 0.500000 0.332217
v -0.180906 -0.500000 0.363057
v -0.180906 0.500000 0.363057
v 0.002020 -0.500000 0.373115
v 0.002020 0.500000 0.373116
v 0.184834 -0.500000 0.362446
v 0.184834 0.500000 0.362446
v 0.364759 -0.500000 0.331100
v 0.364759 0.500000 0.331100
v 0.539015 -0.500000 0.279130
v 0.539015 0.500000 0.279130
v 0.704826 -0.500000 0.206588
v 0.704826 0.500000 0.206589
v 0.859414 -0.500000 0.113528
v 0.859414 0.500000 0.113528
v 1.000000 -0.500000 -0.000000
v 1.000000 0.500000 0.000000
vt 0.000000 1.000000
vt 0.083333 1.000000
vt 0.083333 0.000000
vt 0.000000 0.000000
vt 0.166667 1.000000
vt 0.166667 0.000000
vt 0.250000 1.000000
vt 0.250000 0.000000
vt 0.333333 1.000000
vt 0.333333 0.000000
vt 0.416667 1.000000
vt 0.416667 0.000000
vt 0.500000 1.000000
vt 0.500000 0.000000
vt 0.583333 1.000000
vt 0.583333 0.000000
vt 0.666667 1.000000
vt 0.666667 0.000000
vt 0.750000 1.000000
vt 0.750000 0.000000
vt 0.833333 1.000000
vt 0.833333 0.000000
vt 0.916667 1.000000
vt 0.916667 0.000000
vt 1.000000 1.000000
vt 1.000000 0.000000
vn 0.6281 0.0000 -0.7781
vn 0.5730 0.0000 -0.8196
vn 0.4582 0.0000 -0.8889
vn 0.3420 0.0000 -0.9397
vn 0.2264 0.0000 -0.9740
vn 0.1120 0.0000 -0.9937
vn -0.0017 0.0000 -1.0000
vn -0.1151 0.0000 -0.9933
vn -0.2291 0.0000 -0.9734
vn -0.3440 0.0000 -0.9390
vn -0.4592 0.0000 -0.8883
vn -0.5734 0.0000 -0.8193
vn -0.6283 0.0000 -0.7780
usemtl None
s 1
f 2/1/1 4/2/2 3/3/2 1/4/1
f 4/2/2 6/5/3 5/6/3 3/3/2
f 6/5/3 8/7/4 7/8/4 5/6/3
f 8/7/4 10/9/5 9/10/5 7/8/4
f 10/9/5 12/11/6 11/12/6 9/10/5
f 12/11/6 14/13/7 13/14/7 11/12/6
f 14/13/7 16/15/8 15/16/8 13/14/7
f 16/15/8 18/17/9 17/18/9 15/16/8
f 18/17/9 20/19/10 19/20/10 17/18/9
f 20/19/10 22/21/11 21/22/11 19/20/10
f 22/21/11 24/23/12 23/24/12 21/22/11
f 24/23/12 26/25/13 25/26/13 23/24/12
